<svg xmlns="http://www.w3.org/2000/svg" width="210" height="35" viewBox="0 0 210 35"><rect class="svg__rect" x="0" y="0" width="75.86" height="35" fill="#31C4F3"/><rect class="svg__rect" x="73.86" y="0" width="136.14" height="35" fill="#389AD5"/><path class="svg__text" d="M15.70 22L14.22 22L14.22 13.47L17.22 13.47Q18.69 13.47 19.50 14.13Q20.30 14.79 20.30 16.05L20.30 16.05Q20.30 16.90 19.89 17.48Q19.47 18.06 18.73 18.37L18.73 18.37L20.65 21.92L20.65 22L19.06 22L17.35 18.71L15.70 18.71L15.70 22ZM15.70 14.66L15.70 17.52L17.22 17.52Q17.97 17.52 18.39 17.15Q18.82 16.77 18.82 16.11L18.82 16.11Q18.82 15.43 18.43 15.05Q18.04 14.68 17.26 14.66L17.26 14.66L15.70 14.66ZM30.27 22L24.69 22L24.69 13.47L30.23 13.47L30.23 14.66L26.18 14.66L26.18 17.02L29.68 17.02L29.68 18.19L26.18 18.19L26.18 20.82L30.27 20.82L30.27 22ZM35.25 22L33.71 22L36.93 13.47L38.26 13.47L41.49 22L39.94 22L39.24 20.01L35.94 20.01L35.25 22ZM37.59 15.28L36.35 18.82L38.83 18.82L37.59 15.28ZM45.17 18.19L45.17 18.19L45.17 17.39Q45.17 16.19 45.60 15.27Q46.03 14.35 46.83 13.85Q47.63 13.35 48.68 13.35L48.68 13.35Q50.09 13.35 50.95 14.12Q51.81 14.89 51.95 16.29L51.95 16.29L50.48 16.29Q50.37 15.37 49.94 14.96Q49.51 14.55 48.68 14.55L48.68 14.55Q47.71 14.55 47.19 15.26Q46.67 15.96 46.66 17.33L46.66 17.33L46.66 18.09Q46.66 19.47 47.16 20.20Q47.65 20.92 48.61 20.92L48.61 20.92Q49.48 20.92 49.92 20.53Q50.36 20.14 50.48 19.22L50.48 19.22L51.95 19.22Q51.82 20.59 50.94 21.35Q50.06 22.12 48.61 22.12L48.61 22.12Q47.59 22.12 46.81 21.63Q46.03 21.15 45.61 20.26Q45.19 19.37 45.17 18.19ZM57.95 14.66L55.31 14.66L55.31 13.47L62.08 13.47L62.08 14.66L59.42 14.66L59.42 22L57.95 22L57.95 14.66Z" fill="#FFFFFF"/><path class="svg__text" d="M89.84 15.48L87.26 15.48L87.26 13.60L94.78 13.60L94.78 15.48L92.21 15.48L92.21 22L89.84 22L89.84 15.48ZM101.28 18.95L98.07 13.60L100.58 13.60L102.57 16.94L104.57 13.60L106.87 13.60L103.65 18.99L103.65 22L101.28 22L101.28 18.95ZM113.33 22L110.95 22L110.95 13.60L114.80 13.60Q115.93 13.60 116.77 13.98Q117.61 14.35 118.07 15.06Q118.53 15.76 118.53 16.71L118.53 16.71Q118.53 17.66 118.07 18.35Q117.61 19.05 116.77 19.42Q115.93 19.80 114.80 19.80L114.80 19.80L113.33 19.80L113.33 22ZM113.33 15.47L113.33 17.93L114.65 17.93Q115.38 17.93 115.75 17.61Q116.13 17.29 116.13 16.71L116.13 16.71Q116.13 16.12 115.75 15.80Q115.38 15.47 114.65 15.47L114.65 15.47L113.33 15.47ZM130.02 22L123.28 22L123.28 13.60L129.87 13.60L129.87 15.44L125.64 15.44L125.64 16.85L129.37 16.85L129.37 18.63L125.64 18.63L125.64 20.17L130.02 20.17L130.02 22ZM134.24 21.24L134.24 21.24L135.02 19.49Q135.59 19.86 136.33 20.09Q137.07 20.32 137.79 20.32L137.79 20.32Q139.16 20.32 139.17 19.64L139.17 19.64Q139.17 19.28 138.78 19.11Q138.39 18.93 137.52 18.74L137.52 18.74Q136.57 18.53 135.93 18.30Q135.30 18.06 134.84 17.55Q134.39 17.03 134.39 16.16L134.39 16.16Q134.39 15.39 134.81 14.77Q135.23 14.15 136.06 13.79Q136.90 13.43 138.10 13.43L138.10 13.43Q138.93 13.43 139.74 13.62Q140.54 13.80 141.16 14.17L141.16 14.17L140.42 15.93Q139.22 15.28 138.09 15.28L138.09 15.28Q137.38 15.28 137.06 15.49Q136.74 15.70 136.74 16.04L136.74 16.04Q136.74 16.37 137.12 16.54Q137.51 16.71 138.36 16.89L138.36 16.89Q139.32 17.10 139.95 17.33Q140.58 17.56 141.04 18.07Q141.50 18.58 141.50 19.46L141.50 19.46Q141.50 20.21 141.08 20.83Q140.67 21.44 139.82 21.80Q138.98 22.17 137.78 22.17L137.78 22.17Q136.76 22.17 135.80 21.92Q134.84 21.67 134.24 21.24ZM145.65 17.80L145.65 17.80Q145.65 16.54 146.25 15.54Q146.85 14.55 147.90 13.99Q148.95 13.43 150.27 13.43L150.27 13.43Q151.42 13.43 152.35 13.84Q153.27 14.25 153.88 15.02L153.88 15.02L152.37 16.39Q151.56 15.40 150.39 15.40L150.39 15.40Q149.71 15.40 149.17 15.70Q148.64 16 148.34 16.54Q148.05 17.09 148.05 17.80L148.05 17.80Q148.05 18.51 148.34 19.05Q148.64 19.60 149.17 19.90Q149.71 20.20 150.39 20.20L150.39 20.20Q151.56 20.20 152.37 19.22L152.37 19.22L153.88 20.58Q153.27 21.35 152.35 21.76Q151.42 22.17 150.27 22.17L150.27 22.17Q148.95 22.17 147.90 21.61Q146.85 21.05 146.25 20.05Q145.65 19.06 145.65 17.80ZM160.80 22L158.42 22L158.42 13.60L162.26 13.60Q163.41 13.60 164.24 13.98Q165.08 14.35 165.54 15.06Q166.00 15.76 166.00 16.71L166.00 16.71Q166.00 17.62 165.57 18.30Q165.14 18.98 164.35 19.36L164.35 19.36L166.16 22L163.62 22L162.09 19.77L160.80 19.77L160.80 22ZM160.80 15.47L160.80 17.93L162.12 17.93Q162.85 17.93 163.22 17.61Q163.59 17.29 163.59 16.71L163.59 16.71Q163.59 16.12 163.22 15.79Q162.85 15.47 162.12 15.47L162.12 15.47L160.80 15.47ZM173.16 22L170.78 22L170.78 13.60L173.16 13.60L173.16 22ZM180.71 22L178.34 22L178.34 13.60L182.18 13.60Q183.32 13.60 184.16 13.98Q185.00 14.35 185.45 15.06Q185.91 15.76 185.91 16.71L185.91 16.71Q185.91 17.66 185.45 18.35Q185.00 19.05 184.16 19.42Q183.32 19.80 182.18 19.80L182.18 19.80L180.71 19.80L180.71 22ZM180.71 15.47L180.71 17.93L182.03 17.93Q182.76 17.93 183.14 17.61Q183.51 17.29 183.51 16.71L183.51 16.71Q183.51 16.12 183.14 15.80Q182.76 15.47 182.03 15.47L182.03 15.47L180.71 15.47ZM192.46 15.48L189.87 15.48L189.87 13.60L197.40 13.60L197.40 15.48L194.83 15.48L194.83 22L192.46 22L192.46 15.48Z" fill="#FFFFFF" x="86.86"/></svg>